:SAMPLES-PER-SECOND 30
:FULLY-SPECIFIED
:DEGREES
640
root  39.187 39.5225 25.5177 -15.8251 -71.1135 13.7606
RightUpLeg  8.26302 -7.16871 0.0393838
RightLeg  13.3269 5.88844 3.75917
RightFoot  -16.6153 -0.716822 -13.0636
RightToes  -4.65663e-010 0 -3.6325e-017
Spine  2.7926 1.58171 11.1775
Spine1  7.30268 4.30113 -9.31273
HEad  -6.75783 -9.25656 0.0863772
LeftShoulder1  8.96918 -12.3121 -49.5054
LeftArm  -9.6997 31.5256 -29.6848
LeftForeArm  26.864 -5.56798 -4.89228
LeftHand  -0.244104 0.0205437 5.32207
RightShoulder  5.78081 9.04106 39.9457
RightArm  10.0501 1.70568 37.9834
RightForeArm  5.24241 30.0182 6.2577
RightHand  -0.944463 1.72633 -15.5166
LeftUpLeg  -19.6558 8.52074 2.74846
LeftLeg  20.5431 4.30496 2.04253
LeftFoot  1.29918 0.505477 -4.61115
LeftToes  -7.27628e-011 -1.6005e-012 -1.37987e-011
641
root  38.036 39.4697 26.2443 -19.432 -73.4192 17.4074
RightUpLeg  11.0393 -7.70244 -1.99767
RightLeg  12.3507 9.4491 4.03386
RightFoot  -17.3103 -0.773759 -12.5575
RightToes  -4.65663e-010 0 -3.6325e-017
Spine  2.54478 1.71874 10.3739
Spine1  8.1669 4.5585 -9.98919
HEad  -8.90887 -7.75169 0.141038
LeftShoulder1  8.95523 -12.412 -49.119
LeftArm  -10.0426 33.5339 -30.9948
LeftForeArm  26.6646 -5.72276 -4.86473
LeftHand  -0.244104 0.0205437 5.32207
RightShoulder  5.739 9.01634 39.7154
RightArm  10.9248 3.97644 38.5372
RightForeArm  6.00417 32.1903 6.76384
RightHand  -0.878247 1.41458 -15.087
LeftUpLeg  -18.3786 9.63679 2.4661
LeftLeg  8.60825 4.85301 -1.13268
LeftFoot  2.90256 0.827056 -6.75121
LeftToes  -7.27628e-011 -1.6005e-012 -1.37987e-011
642
root  36.8591 39.3023 27.003 -22.4929 -75.2756 20.2162
RightUpLeg  13.4967 -8.25791 -3.86029
RightLeg  12.527 12.4089 4.24895
RightFoot  -18.3549 -0.820736 -11.3398
RightToes  -4.65663e-010 0 -3.6325e-017
Spine  2.8483 1.58991 9.82101
Spine1  8.67034 4.53746 -10.3269
HEad  -10.74 -6.45462 0.0511903
LeftShoulder1  8.88548 -12.3953 -48.7867
LeftArm  -10.3308 34.8559 -31.8246
LeftForeArm  26.5379 -6.21759 -4.87346
LeftHand  -0.244104 0.0205437 5.32207
RightShoulder  5.78391 9.11444 39.7147
RightArm  11.6554 5.6816 38.7202
RightForeArm  6.42728 33.6504 7.12528
RightHand  -0.875769 1.40904 -15.0546
LeftUpLeg  -17.0471 4.99558 4.46476
LeftLeg  0.355198 12.1553 -5.21353
LeftFoot  3.22706 1.15448 -9.19642
LeftToes  -7.27628e-011 -1.6005e-012 -1.37987e-011
643
root  35.6047 39.0784 27.802 -23.4648 -76.4644 20.8956
RightUpLeg  15.4832 -8.54213 -5.13714
RightLeg  13.7346 14.1033 4.38514
RightFoot  -19.0417 -0.791236 -9.80923
RightToes  -4.65663e-010 0 -3.6325e-017
Spine  3.0466 1.33585 9.68369
Spine1  8.98854 4.31121 -10.3463
HEad  -11.9306 -6.40535 0.0110089
LeftShoulder1  8.7988 -12.3316 -48.5032
LeftArm  -10.2595 35.0925 -31.8854
LeftForeArm  26.9599 -6.23595 -4.89409
LeftHand  -0.244104 0.0205437 5.32207
RightShoulder  5.83128 9.19249 39.8018
RightArm  11.6318 6.22461 38.5482
RightForeArm  6.7529 34.514 7.34151
RightHand  -0.882854 1.37268 -15.2529
LeftUpLeg  -17.0263 4.86914 3.92587
LeftLeg  -1.89089 13.8192 -6.37888
LeftFoot  2.32843 1.16071 -9.75692
LeftToes  -7.27628e-011 -1.6005e-012 -1.37987e-011
644
root  34.2169 38.8687 28.6185 -23.9145 -77.2021 21.1362
RightUpLeg  17.3146 -8.02894 -6.0114
RightLeg  15.2973 14.6031 4.29239
RightFoot  -18.8871 -0.667937 -8.18755
RightToes  -4.65663e-010 0 -3.6325e-017
Spine  2.63839 1.29354 9.27644
Spine1  9.51167 4.21481 -10.0056
HEad  -12.0298 -7.37078 0.125819
LeftShoulder1  8.72285 -12.2885 -48.213
LeftArm  -9.80072 34.5689 -31.2013
LeftForeArm  27.6882 -5.8323 -4.93841
LeftHand  -0.244104 0.0205437 5.32207
RightShoulder  5.84269 9.17634 39.9426
RightArm  10.9065 5.21554 37.9149
RightForeArm  6.69918 34.8284 7.43036
RightHand  -0.883355 1.29432 -15.4324
LeftUpLeg  -17.483 4.35509 2.68056
LeftLeg  0.374909 14.2489 -5.69944
LeftFoot  3.22642 0.895821 -7.23622
LeftToes  -7.27628e-011 -1.6005e-012 -1.37987e-011
645
root  32.6912 38.6776 29.4314 -26.9582 -77.7634 23.8959
RightUpLeg  19.025 -6.04083 -7.00271
RightLeg  17.3995 14.0293 4.36603
RightFoot  -18.2023 -0.452795 -5.54819
RightToes  -4.65663e-010 0 -3.6325e-017
Spine  1.99972 1.50803 7.71899
Spine1  9.85418 4.1779 -9.11226
HEad  -11.4952 -7.88861 0.45056
LeftShoulder1  8.64787 -12.2067 -48.0453
LeftArm  -9.11947 33.8699 -29.8387
LeftForeArm  27.9968 -5.6087 -5.03778
LeftHand  -0.244104 0.0205437 5.32207
RightShoulder  5.90071 9.18007 40.3621
RightArm  10.4294 3.14761 36.9006
RightForeArm  6.15785 33.8007 7.18193
RightHand  -0.907821 1.48087 -15.4391
LeftUpLeg  -18.087 5.19664 0.411655
LeftLeg  5.47304 11.9427 -3.84722
LeftFoot  6.32044 0.460635 -3.229
LeftToes  -7.27628e-011 -1.6005e-012 -1.37987e-011
646
root  31.1272 38.5617 30.2082 -32.8874 -77.9294 29.5082
RightUpLeg  19.4853 -2.97963 -8.36202
RightLeg  21.532 12.6725 5.27301
RightFoot  -16.0067 -0.158486 -1.0217
RightToes  -4.65663e-010 0 -3.6325e-017
Spine  1.69561 1.62416 4.98098
Spine1  9.5501 3.86374 -7.80673
HEad  -10.126 -8.89322 1.16666
LeftShoulder1  8.5865 -12.0574 -48.1624
LeftArm  -8.31636 32.8136 -27.7852
LeftForeArm  27.598 -5.63574 -5.184
LeftHand  -0.244104 0.0205437 5.32207
RightShoulder  6.03627 9.2614 41.0836
RightArm  10.9079 1.04562 36.1506
RightForeArm  5.03661 30.1636 6.23959
RightHand  -0.978943 2.06516 -15.3681
LeftUpLeg  -18.6348 8.8762 -3.18325
LeftLeg  11.3998 6.45344 -1.42629
LeftFoot  8.03331 0.0260758 -0.395578
LeftToes  -7.27628e-011 -1.6005e-012 -1.37987e-011
647
root  29.6415 38.5729 30.9272 -39.4063 -77.7943 35.7763
RightUpLeg  17.0688 -0.894253 -10.0727
RightLeg  29.6406 11.6942 6.893
RightFoot  -9.38955 -0.162455 4.28865
RightToes  -4.65663e-010 0 -3.6325e-017
Spine  1.88732 1.50354 2.27367
Spine1  8.86446 3.38452 -6.75516
HEad  -9.0522 -9.44005 1.58919
LeftShoulder1  8.58933 -11.978 -48.4268
LeftArm  -7.60371 30.6282 -25.3829
LeftForeArm  26.9135 -5.51671 -5.31349
LeftHand  -0.244104 0.0205437 5.32207
RightShoulder  6.15748 9.34793 41.6697
RightArm  10.6001 -0.382163 36.3528
RightForeArm  4.24769 23.408 5.33296
RightHand  -1.05402 2.64813 -15.3666
LeftUpLeg  -18.4719 12.0008 -6.28505
LeftLeg  16.2475 2.79294 0.656956
LeftFoot  5.64945 -0.0674759 0.197827
LeftToes  -7.27628e-011 -1.6005e-012 -1.37987e-011
648
root  28.3314 38.6499 31.5509 -47.8192 -78.0988 43.9721
RightUpLeg  11.3084 1.7004 -11.2355
RightLeg  40.8258 9.01985 7.94879
RightFoot  2.35545 -0.955603 8.14986
RightToes  -4.65663e-010 0 -3.6325e-017
Spine  2.68349 1.53278 0.282313
Spine1  8.35864 3.23384 -6.55956
HEad  -8.90506 -9.93041 1.6474
LeftShoulder1  8.67765 -12.0953 -48.5589
LeftArm  -7.29862 27.1828 -23.2195
LeftForeArm  26.2205 -5.37372 -5.39276
LeftHand  -0.244104 0.0205437 5.32207
RightShoulder  6.2286 9.46132 41.791
RightArm  3.5787 -0.977186 37.0971
RightForeArm  9.10932 14.2695 6.51355
RightHand  -1.03838 2.58355 -15.2602
LeftUpLeg  -17.0476 13.0303 -7.58778
LeftLeg  19.1092 3.21357 1.64205
LeftFoot  1.22119 0.0284322 -0.326023
LeftToes  -7.27628e-011 -1.6005e-012 -1.37987e-011
649
root  27.1791 38.7179 32.0711 -59.9557 -78.7884 55.7187
RightUpLeg  4.1051 4.61228 -11.9346
RightLeg  51.6191 5.11336 6.48596
RightFoot  12.9634 -1.85591 9.12301
RightToes  -4.65663e-010 0 -3.6325e-017
Spine  4.04585 1.77269 -1.47469
Spine1  8.21588 3.26553 -6.88827
HEad  -9.57646 -9.93199 1.22502
LeftShoulder1  8.80754 -12.3278 -48.5634
LeftArm  -7.48942 23.2102 -21.3848
LeftForeArm  25.3424 -5.80816 -5.44329
LeftHand  -0.244104 0.0205437 5.32207
RightShoulder  6.33646 9.70575 41.7228
RightArm  -5.78203 -1.15313 37.5361
RightForeArm  16.4808 5.60497 7.05947
RightHand  -0.936822 1.95777 -14.9265
LeftUpLeg  -14.819 15.0294 -8.2472
LeftLeg  20.3988 3.61214 1.68668
LeftFoot  -2.10121 0.0507131 -0.452382
LeftToes  -7.27628e-011 -1.6005e-012 -1.37987e-011
650
root  25.9969 38.9467 32.5853 -69.5129 -79.529 64.6474
RightUpLeg  -2.30837 6.02167 -11.8625
RightLeg  59.3365 1.56222 2.39572
RightFoot  16.295 -1.7081 7.36272
RightToes  -4.65663e-010 0 -3.6325e-017
Spine  5.33617 1.49962 -2.39932
Spine1  8.00553 2.77873 -6.63523
HEad  -10.3867 -9.39868 0.563472
LeftShoulder1  8.91214 -12.5009 -48.61
LeftArm  -8.09439 19.2119 -19.5541
LeftForeArm  24.3816 -6.86075 -5.45582
LeftHand  -0.244104 0.0205437 5.32207
RightShoulder  6.50115 9.99787 41.8929
RightArm  -7.09309 -1.66798 37.3301
RightForeArm  18.6583 0.980463 6.07351
RightHand  -0.879599 1.62495 -14.6734
LeftUpLeg  -11.3395 16.0797 -7.73873
LeftLeg  19.7002 4.40994 1.0441
LeftFoot  -3.66025 0.0306142 -0.141602
LeftToes  -7.27628e-011 -1.6005e-012 -1.37987e-011
